<svg xmlns="http://www.w3.org/2000/svg" width="74" height="68" viewBox="0 0 74 68">
  <metadata><?xpacket begin="﻿" id="W5M0MpCehiHzreSzNTczkc9d"?>
<x:xmpmeta xmlns:x="adobe:ns:meta/" x:xmptk="Adobe XMP Core 5.6-c138 79.159824, 2016/09/14-01:09:01        ">
   <rdf:RDF xmlns:rdf="http://www.w3.org/1999/02/22-rdf-syntax-ns#">
      <rdf:Description rdf:about=""/>
   </rdf:RDF>
</x:xmpmeta>
                                                                                                    
                                                                                                    
                                                                                                    
                                                                                                    
                                                                                                    
                                                                                                    
                                                                                                    
                                                                                                    
                                                                                                    
                                                                                                    
                                                                                                    
                                                                                                    
                                                                                                    
                                                                                                    
                                                                                                    
                                                                                                    
                                                                                                    
                                                                                                    
                                                                                                    
                                                                                                    
                           
<?xpacket end="w"?></metadata>

  <path class="cls-1" d="M842.63,543.087a1.145,1.145,0,0,0-1.635,0l-26.982,27.357a1.183,1.183,0,0,0,0,1.658,1.143,1.143,0,0,0,1.635,0l26.982-27.357A1.183,1.183,0,0,0,842.63,543.087Zm3.27,3.316a1.143,1.143,0,0,0-1.635,0l-26.981,27.358a1.183,1.183,0,0,0,0,1.658,1.146,1.146,0,0,0,1.635,0L845.9,548.061A1.183,1.183,0,0,0,845.9,546.4Zm-26.98,27.358a1.147,1.147,0,0,0-1.636,0,1.146,1.146,0,0,1-1.635,0,1.185,1.185,0,0,1,0-1.659,1.183,1.183,0,0,0,0-1.658,1.145,1.145,0,0,0-1.635,0,3.559,3.559,0,0,0,0,4.976,3.443,3.443,0,0,0,4.906,0A1.185,1.185,0,0,0,818.92,573.761Zm40.062-14.094-29.434-29.845a1.145,1.145,0,0,0-1.635,0,1.183,1.183,0,0,0,0,1.658l29.434,29.845a1.143,1.143,0,0,0,1.635,0A1.183,1.183,0,0,0,858.982,559.667Zm0.261,0.407c-0.17-.448-4.262-11.094-11.708-18.645s-17.946-11.7-18.389-11.871a1.153,1.153,0,0,0-1.494.673,1.175,1.175,0,0,0,.663,1.514c0.1,0.04,10.493,4.152,17.585,11.342s11.145,17.725,11.184,17.83a1.159,1.159,0,0,0,1.08.752,1.121,1.121,0,0,0,.415-0.08A1.178,1.178,0,0,0,859.243,560.074Zm-10.89-22.79a1.143,1.143,0,0,0-1.635,0l-2.5,2.539a1.183,1.183,0,0,0,0,1.658,1.143,1.143,0,0,0,1.635,0l2.5-2.539A1.183,1.183,0,0,0,848.353,537.284Zm3.27,3.317-3.27-3.317a1.143,1.143,0,0,0-1.635,0,1.183,1.183,0,0,0,0,1.658l3.27,3.316a1.143,1.143,0,0,0,1.635,0A1.182,1.182,0,0,0,851.623,540.6Zm0,0a1.143,1.143,0,0,0-1.635,0l-2.5,2.539a1.183,1.183,0,0,0,0,1.658,1.146,1.146,0,0,0,1.635,0l2.5-2.54A1.182,1.182,0,0,0,851.623,540.6ZM853,569.692a1.145,1.145,0,0,0-1.63.138l-12.719,15.241a1.183,1.183,0,0,0,.137,1.652,1.145,1.145,0,0,0,1.629-.138l12.719-15.241A1.183,1.183,0,0,0,853,569.692Zm3.364,2.264-3.468-2.345a1.147,1.147,0,0,0-1.6.324,1.182,1.182,0,0,0,.32,1.627l3.469,2.344a1.147,1.147,0,0,0,1.6-.324A1.181,1.181,0,0,0,856.359,571.956ZM868.1,560.378a1.145,1.145,0,0,0-1.635,0L854.9,572.1a1.183,1.183,0,0,0,0,1.658,1.146,1.146,0,0,0,1.635,0L868.1,562.036A1.183,1.183,0,0,0,868.1,560.378Zm16.188,16.414L868.1,560.378a1.145,1.145,0,0,0-1.635,0,1.183,1.183,0,0,0,0,1.658l16.188,16.414a1.146,1.146,0,0,0,1.635,0A1.183,1.183,0,0,0,884.286,576.792Zm2.607,8.714L884.58,577.3a1.161,1.161,0,0,0-1.429-.806,1.175,1.175,0,0,0-.795,1.449l2.312,8.207a1.151,1.151,0,0,0,1.43.806A1.175,1.175,0,0,0,886.893,585.506Zm-24.238-33.678A1.164,1.164,0,0,0,861.5,553v7.034a1.156,1.156,0,1,0,2.312,0V553A1.163,1.163,0,0,0,862.655,551.828Zm-5.781,11.724h-6.938a1.172,1.172,0,0,0,0,2.344h6.938A1.172,1.172,0,0,0,856.874,563.552Zm20.235-38.69a1.173,1.173,0,0,0,0,2.345,0.586,0.586,0,0,1,0,1.172,1.173,1.173,0,0,0,0,2.345A2.931,2.931,0,0,0,877.109,524.862Zm0.578,3.517a1.173,1.173,0,0,0,0,2.345,1.173,1.173,0,0,1,0,2.345,1.173,1.173,0,0,0,0,2.345A3.518,3.518,0,0,0,877.687,528.379Zm0,0h-3.469a1.173,1.173,0,0,0,0,2.345h3.469A1.173,1.173,0,0,0,877.687,528.379Zm0,4.69h-4.625a1.173,1.173,0,0,0,0,2.345h4.625A1.173,1.173,0,0,0,877.687,533.069Zm-0.578-8.207h-4.047a1.173,1.173,0,0,0,0,2.345h4.047A1.173,1.173,0,0,0,877.109,524.862Zm-2.891,0a1.164,1.164,0,0,0-1.156,1.172v8.207a1.156,1.156,0,1,0,2.312,0v-8.207A1.164,1.164,0,0,0,874.218,524.862Zm1.156-1.172a1.164,1.164,0,0,0-1.156,1.172v1.172a1.156,1.156,0,1,0,2.312,0v-1.172A1.163,1.163,0,0,0,875.374,523.69Zm0,9.379a1.164,1.164,0,0,0-1.156,1.172v1.173a1.156,1.156,0,1,0,2.312,0v-1.173A1.163,1.163,0,0,0,875.374,533.069ZM875.952,519a11.139,11.139,0,1,0,10.985,11.138A11.075,11.075,0,0,0,875.952,519Zm0,19.931a8.794,8.794,0,1,1,8.672-8.793A8.743,8.743,0,0,1,875.952,538.931Zm9.829-5.276a1.164,1.164,0,0,0-1.157,1.173,8.673,8.673,0,1,1-17.344,0,1.156,1.156,0,1,0-2.312,0,10.986,10.986,0,1,0,21.969,0A1.164,1.164,0,0,0,885.781,533.655Zm-19.657-4.69a1.165,1.165,0,0,0-1.156,1.173v4.69a1.156,1.156,0,1,0,2.312,0v-4.69A1.165,1.165,0,0,0,866.124,528.965Zm19.657,0a1.165,1.165,0,0,0-1.157,1.173v4.69a1.157,1.157,0,1,0,2.313,0v-4.69A1.165,1.165,0,0,0,885.781,528.965ZM880,538.048a1.164,1.164,0,0,0-1.156,1.173v4.689a1.157,1.157,0,1,0,2.313,0v-4.689A1.164,1.164,0,0,0,880,538.048Zm-8.094,0a1.165,1.165,0,0,0-1.156,1.173v4.688a1.157,1.157,0,1,0,2.313,0v-4.688A1.165,1.165,0,0,0,871.905,538.049ZM881.8,553a5.277,5.277,0,1,0,5.2,5.276A5.246,5.246,0,0,0,881.8,553Zm0,8.207a2.931,2.931,0,1,1,2.891-2.931A2.914,2.914,0,0,1,881.8,561.207Zm4.047-.586a1.163,1.163,0,0,0-1.156,1.172,2.891,2.891,0,1,1-5.782,0,1.156,1.156,0,1,0-2.312,0,5.2,5.2,0,1,0,10.406,0A1.163,1.163,0,0,0,885.842,560.621Zm-8.094-3.518a1.163,1.163,0,0,0-1.156,1.173v3.517a1.156,1.156,0,1,0,2.312,0v-3.517A1.163,1.163,0,0,0,877.748,557.1Zm8.094,0a1.163,1.163,0,0,0-1.156,1.173v3.517a1.156,1.156,0,1,0,2.312,0v-3.517A1.163,1.163,0,0,0,885.842,557.1Zm-14.453-8.793a4.1,4.1,0,1,0,4.047,4.1A4.08,4.08,0,0,0,871.389,548.31Zm0,5.862a1.759,1.759,0,1,1,1.734-1.758A1.749,1.749,0,0,1,871.389,554.172Zm14.392,30.483H839.53a1.173,1.173,0,0,0,0,2.345h46.251A1.173,1.173,0,0,0,885.781,584.655Z" transform="translate(-813 -519)"/>
</svg>
