<svg xmlns="http://www.w3.org/2000/svg" width="70" height="56" viewBox="0 0 70 56">
  <metadata><?xpacket begin="﻿" id="W5M0MpCehiHzreSzNTczkc9d"?>
<x:xmpmeta xmlns:x="adobe:ns:meta/" x:xmptk="Adobe XMP Core 5.6-c138 79.159824, 2016/09/14-01:09:01        ">
   <rdf:RDF xmlns:rdf="http://www.w3.org/1999/02/22-rdf-syntax-ns#">
      <rdf:Description rdf:about=""/>
   </rdf:RDF>
</x:xmpmeta>
                                                                                                    
                                                                                                    
                                                                                                    
                                                                                                    
                                                                                                    
                                                                                                    
                                                                                                    
                                                                                                    
                                                                                                    
                                                                                                    
                                                                                                    
                                                                                                    
                                                                                                    
                                                                                                    
                                                                                                    
                                                                                                    
                                                                                                    
                                                                                                    
                                                                                                    
                                                                                                    
                           
<?xpacket end="w"?></metadata>
  <path class="cls-1" d="M554.458,547.959a4.412,4.412,0,0,0-4.209-4.431v-0.466a1.367,1.367,0,1,0-2.734,0v0.462h-2.953a1.386,1.386,0,0,0,0,2.772h0.085v9.425h-0.085a1.386,1.386,0,0,0,0,2.772h2.953v0.441a1.367,1.367,0,1,0,2.734,0v-0.446a4.446,4.446,0,0,0,3.007-7.48A4.451,4.451,0,0,0,554.458,547.959Zm-4.375,7.762h-2.7v-3.327h2.7A1.664,1.664,0,0,1,550.083,555.721Zm0-6.1h-2.7V546.3h2.7A1.663,1.663,0,0,1,550.083,549.622Zm28.857,19.121a5.08,5.08,0,0,0-4.878,3.773h-3.34l-8.791-8.913a1.356,1.356,0,0,0-.966-0.406h-3.409a15.022,15.022,0,0,0,6.139-10.813h10.377a5.129,5.129,0,1,0,0-2.772H563.7a15.033,15.033,0,0,0-1.837-5.963,14.816,14.816,0,0,0-4.311-4.851h3.414a1.359,1.359,0,0,0,.967-0.406l8.791-8.912h3.338a5.13,5.13,0,1,0,.02-2.772h-3.925a1.356,1.356,0,0,0-.966.406l-8.791,8.912H537.6l-8.791-8.912a1.359,1.359,0,0,0-.967-0.406h-3.925a5.128,5.128,0,1,0,.02,2.772h3.339l8.791,8.913a1.36,1.36,0,0,0,.966.406h3.409a14.787,14.787,0,0,0-4.711,5.625,15.128,15.128,0,0,0-1.438,5.188H523.928a5.128,5.128,0,1,0,0,2.772h10.366c0.019,0.2.04,0.4,0.067,0.6a1.367,1.367,0,1,0,2.71-.367,12.528,12.528,0,0,1-.106-1.564c0-.019,0-0.037,0-0.055s0-.039,0-0.058a12.161,12.161,0,0,1,6.128-10.568,11.957,11.957,0,0,1,16.388,4.639,12.3,12.3,0,0,1-4.576,16.613,11.915,11.915,0,0,1-5.522,1.573h-0.732a11.911,11.911,0,0,1-7.115-2.627,1.354,1.354,0,0,0-1.92.228,1.4,1.4,0,0,0,.226,1.947c0.2,0.157.4,0.307,0.6,0.453h-3.406a1.359,1.359,0,0,0-.967.406l-8.791,8.912h-3.34a5.129,5.129,0,1,0-.017,2.772h3.923a1.357,1.357,0,0,0,.967-0.406l8.791-8.913h22.8l8.791,8.913a1.357,1.357,0,0,0,.967.406h3.923A5.069,5.069,0,1,0,578.94,568.743Zm0-20.1A2.356,2.356,0,1,1,576.617,551,2.343,2.343,0,0,1,578.941,548.642Zm0-22.87a2.357,2.357,0,1,1-2.324,2.356A2.343,2.343,0,0,1,578.941,525.772Zm-59.881,4.713a2.357,2.357,0,1,1,2.324-2.357A2.343,2.343,0,0,1,519.06,530.485Zm0,22.869A2.357,2.357,0,1,1,521.383,551,2.343,2.343,0,0,1,519.058,553.354Zm0,22.874a2.357,2.357,0,1,1,2.325-2.356A2.343,2.343,0,0,1,519.058,576.228Zm59.882,0a2.357,2.357,0,1,1,2.324-2.356A2.343,2.343,0,0,1,578.94,576.228Zm-40.427-19.24a1.362,1.362,0,0,0-1.867-.525,1.4,1.4,0,0,0-.521,1.887,1.363,1.363,0,0,0,1.193.707,1.345,1.345,0,0,0,.669-0.178l0.01-.006A1.39,1.39,0,0,0,538.513,556.988ZM561.664,523H549.222a1.386,1.386,0,0,0,0,2.772h12.442A1.386,1.386,0,0,0,561.664,523Zm-15.111,5.267h-8.3a1.386,1.386,0,0,0,0,2.772h8.3A1.386,1.386,0,0,0,546.553,528.267Zm31.356,7.794H569.6a1.386,1.386,0,0,0,0,2.772h8.306A1.386,1.386,0,0,0,577.909,536.061Zm-46.853,27.106H522.75a1.387,1.387,0,0,0,0,2.773h8.306A1.387,1.387,0,0,0,531.056,563.167Zm21.384,13.462a1.353,1.353,0,0,0-1.933,0,1.4,1.4,0,0,0,0,1.961,1.356,1.356,0,0,0,1.933,0A1.4,1.4,0,0,0,552.44,576.629Zm-6.64-.4H534.036a1.386,1.386,0,0,0,0,2.772H545.8A1.386,1.386,0,0,0,545.8,576.224Zm14.2-5.267H549a1.386,1.386,0,0,0,0,2.772h11A1.386,1.386,0,0,0,560,570.957Z" transform="translate(-514 -523)"/>
</svg>
