<svg xmlns="http://www.w3.org/2000/svg" width="75" height="75" viewBox="0 0 75 75">
  <metadata><?xpacket begin="﻿" id="W5M0MpCehiHzreSzNTczkc9d"?>
<x:xmpmeta xmlns:x="adobe:ns:meta/" x:xmptk="Adobe XMP Core 5.6-c138 79.159824, 2016/09/14-01:09:01        ">
   <rdf:RDF xmlns:rdf="http://www.w3.org/1999/02/22-rdf-syntax-ns#">
      <rdf:Description rdf:about=""/>
   </rdf:RDF>
</x:xmpmeta>
                                                                                                    
                                                                                                    
                                                                                                    
                                                                                                    
                                                                                                    
                                                                                                    
                                                                                                    
                                                                                                    
                                                                                                    
                                                                                                    
                                                                                                    
                                                                                                    
                                                                                                    
                                                                                                    
                                                                                                    
                                                                                                    
                                                                                                    
                                                                                                    
                                                                                                    
                                                                                                    
                           
<?xpacket end="w"?></metadata>
  <path class="cls-1" d="M254.863,548.87a4.1,4.1,0,0,0,.892-2.537v-0.41a4.172,4.172,0,0,0-3.749-4.122v-1.3a1.25,1.25,0,1,0-2.5,0v1.249h-2.5v-1.249a1.25,1.25,0,1,0-2.5,0v1.249h-1.249a1.25,1.25,0,1,0,0,2.5h8.293a1.688,1.688,0,0,1,1.7,1.669v0.41a1.688,1.688,0,0,1-1.7,1.669h-4.544a1.25,1.25,0,0,0-2.5,0v3.748a1.25,1.25,0,0,0,2.5,0V550.5h5.051a2.418,2.418,0,0,1,2.447,2.383v0.232a2.418,2.418,0,0,1-2.447,2.383h-8.8a1.249,1.249,0,1,0,0,2.5h1.249v1.25a1.25,1.25,0,0,0,2.5,0V558h2.5v1.25a1.25,1.25,0,0,0,2.5,0V558h0.053a4.92,4.92,0,0,0,4.946-4.881v-0.232A4.861,4.861,0,0,0,254.863,548.87ZM248.619,536.4a1.319,1.319,0,0,0,.888.363,1.733,1.733,0,0,0,.237-0.025,0.8,0.8,0,0,0,.238-0.075,0.722,0.722,0,0,0,.212-0.113c0.074-.05.138-0.1,0.2-0.15a1.436,1.436,0,0,0,.262-0.412,1.252,1.252,0,0,0,.1-0.475,1.289,1.289,0,0,0-.362-0.887c-0.062-.05-0.126-0.1-0.2-0.15a0.7,0.7,0,0,0-.212-0.113,0.748,0.748,0,0,0-.238-0.074,1.278,1.278,0,0,0-1.124.337,2.091,2.091,0,0,0-.151.187,0.946,0.946,0,0,0-.112.225,0.853,0.853,0,0,0-.076.225,1.748,1.748,0,0,0-.024.25,1.252,1.252,0,0,0,.1.475A1.436,1.436,0,0,0,248.619,536.4Zm1.775,28.212c-0.062-.05-0.126-0.1-0.2-0.15a0.7,0.7,0,0,0-.212-0.113,0.748,0.748,0,0,0-.238-0.074,1.245,1.245,0,0,0-1.124.337,1.439,1.439,0,0,0-.263.412,1.252,1.252,0,0,0-.1.475,1.617,1.617,0,0,0,.025.25,0.817,0.817,0,0,0,.075.225,0.931,0.931,0,0,0,.113.225,1.919,1.919,0,0,0,.15.187,1.314,1.314,0,0,0,.887.363,1.576,1.576,0,0,0,.237-0.026,0.768,0.768,0,0,0,.238-0.075,0.688,0.688,0,0,0,.212-0.113,2.419,2.419,0,0,0,.2-0.149,1.294,1.294,0,0,0,.363-0.887,1.252,1.252,0,0,0-.1-0.475A1.46,1.46,0,0,0,250.394,564.607Zm-6.012-26.95h0a1.209,1.209,0,0,0,.875-0.363,2.079,2.079,0,0,0,.163-0.187c0.037-.075.075-0.137,0.112-0.212s0.05-.162.076-0.237a1.762,1.762,0,0,0,.024-0.251,1.218,1.218,0,0,0-.374-0.874,0.856,0.856,0,0,0-.187-0.163c-0.064-.037-0.138-0.075-0.212-0.112s-0.164-.05-0.238-0.075a1.26,1.26,0,0,0-1.126.35A1.244,1.244,0,0,0,244.382,537.657Zm11.135,26.05a1.157,1.157,0,0,0-.187-0.162c-0.075-.038-0.137-0.075-0.212-0.113a1.771,1.771,0,0,0-.238-0.062,1.082,1.082,0,0,0-.487,0,1.771,1.771,0,0,0-.238.062c-0.074.038-.15,0.075-0.212,0.113a0.81,0.81,0,0,0-.188.162,1.107,1.107,0,0,0-.275.4,1.4,1.4,0,0,0-.1.487,1.225,1.225,0,0,0,.375.875,0.81,0.81,0,0,0,.188.162c0.062,0.038.138,0.075,0.212,0.113a1.824,1.824,0,0,0,.238.075,1.561,1.561,0,0,0,.237.025,1.736,1.736,0,0,0,.25-0.025,1.935,1.935,0,0,0,.238-0.075c0.075-.038.137-0.075,0.212-0.113a1.11,1.11,0,0,0,.187-0.162,1.209,1.209,0,0,0,.363-0.875,1.349,1.349,0,0,0-.087-0.487A1.3,1.3,0,0,0,255.517,563.707Zm-16.808-24.213c0.038,0.075.076,0.15,0.113,0.212a1.306,1.306,0,0,0,.163.2,1.237,1.237,0,0,0,.4.263,1.275,1.275,0,0,0,.488.1,1.238,1.238,0,0,0,1.037-.563c0.037-.062.074-0.137,0.112-0.212s0.05-.15.075-0.238a1.342,1.342,0,0,0,.025-0.237,1.492,1.492,0,0,0-.025-0.25c-0.025-.075-0.05-0.162-0.075-0.237s-0.075-.138-0.112-0.213-0.1-.128-0.162-0.188a1.521,1.521,0,0,0-.4-0.274,1.283,1.283,0,0,0-.963,0,1.5,1.5,0,0,0-.4.274,2.411,2.411,0,0,0-.163.188c-0.037.075-.075,0.138-0.113,0.213s-0.05.162-.075,0.237a1.748,1.748,0,0,0-.024.25,1.56,1.56,0,0,0,.024.237C238.659,539.344,238.684,539.419,238.709,539.494Zm21.132,21.452a1.591,1.591,0,0,0-.212-0.112,1.671,1.671,0,0,0-.237-0.075,1.256,1.256,0,0,0-1.5,1.224,1.358,1.358,0,0,0,.1.487,1.082,1.082,0,0,0,.275.4,1.2,1.2,0,0,0,.875.362,0.812,0.812,0,0,0,.25-0.025,0.9,0.9,0,0,0,.449-0.187,1.041,1.041,0,0,0,.188-0.15,1.267,1.267,0,0,0,.274-0.4,1.354,1.354,0,0,0,.088-0.487,1.257,1.257,0,0,0-.362-0.887Zm-24.206-18.828a1.258,1.258,0,0,0-.363.887,1.242,1.242,0,0,0,.088.474,1.49,1.49,0,0,0,.275.413,1.293,1.293,0,0,0,.887.362,1.263,1.263,0,0,0,1.249-1.249,1.263,1.263,0,0,0-.374-0.887A1.291,1.291,0,0,0,235.635,542.118Zm27.743,14.993a1.247,1.247,0,0,0-1.124-.338,0.735,0.735,0,0,0-.238.075,0.712,0.712,0,0,0-.213.112,0.78,0.78,0,0,0-.188.151,1.253,1.253,0,0,0,0,1.774,0.8,0.8,0,0,0,.188.149,0.693,0.693,0,0,0,.213.113,0.76,0.76,0,0,0,.238.075,1.562,1.562,0,0,0,.236.025,1.289,1.289,0,0,0,.888-0.362,1.441,1.441,0,0,0,.262-0.413,1.173,1.173,0,0,0,0-.95A1.431,1.431,0,0,0,263.378,557.111Zm-28.643-7.959h0a1.248,1.248,0,0,0,.887-0.375,1.264,1.264,0,0,0,.363-0.875,1.089,1.089,0,0,0-.1-0.487,1.241,1.241,0,0,0-.263-0.4,1.293,1.293,0,0,0-1.762,0,1.092,1.092,0,0,0-.274.4,1.312,1.312,0,0,0-.1.487A1.281,1.281,0,0,0,234.735,549.152Zm30.693,3.473a0.7,0.7,0,0,0-.114-0.213,0.8,0.8,0,0,0-.162-0.187,1.28,1.28,0,0,0-1.124-.35c-0.076.025-.162,0.05-0.238,0.075s-0.138.075-.212,0.113a2.428,2.428,0,0,0-.188.162,1.212,1.212,0,0,0-.363.874,0.848,0.848,0,0,0,.026.251,1.8,1.8,0,0,0,.062.237,1.222,1.222,0,0,0,.126.212,0.68,0.68,0,0,0,.149.188c0.06,0.057.123,0.111,0.188,0.162s0.138,0.075.212,0.113a1.771,1.771,0,0,0,.238.062,0.837,0.837,0,0,0,.249.025,1.208,1.208,0,0,0,.875-0.362,1.158,1.158,0,0,0,.162-0.188,0.868,0.868,0,0,0,.114-0.212,0.859,0.859,0,0,0,.074-0.237,1.629,1.629,0,0,0,.025-0.251,1.455,1.455,0,0,0-.025-0.237A0.859,0.859,0,0,0,265.428,552.625Zm-29.806,1.362a1.241,1.241,0,0,0,.263-0.4,1.1,1.1,0,0,0,.1-0.488,1.263,1.263,0,0,0-.363-0.874,1.281,1.281,0,0,0-1.762,0,1.222,1.222,0,0,0-.374.874,1.318,1.318,0,0,0,.1.488,1.092,1.092,0,0,0,.274.4,1.215,1.215,0,0,0,.875.362,0.837,0.837,0,0,0,.25-0.025,1.558,1.558,0,0,0,.225-0.062l0.226-.113A2.035,2.035,0,0,0,235.622,553.987Zm27.768-6.972a1.24,1.24,0,0,0-.363.887,0.767,0.767,0,0,0,.026.238,1.292,1.292,0,0,0,.062.237,1.222,1.222,0,0,0,.126.212,0.545,0.545,0,0,0,.149.188,2.44,2.44,0,0,0,.188.163c0.074,0.037.138,0.075,0.212,0.112s0.162,0.05.238,0.075a1.722,1.722,0,0,0,.249.025,1.221,1.221,0,0,0,.875-0.375,0.826,0.826,0,0,0,.162-0.187,0.718,0.718,0,0,0,.114-0.213,0.779,0.779,0,0,0,.074-0.237,1.716,1.716,0,0,0,.025-0.237,1.736,1.736,0,0,0-.025-0.25,0.927,0.927,0,0,0-.074-0.238,0.9,0.9,0,0,0-.114-0.212,1.157,1.157,0,0,0-.162-0.187,1.246,1.246,0,0,0-1.124-.338,1.771,1.771,0,0,0-.238.062c-0.074.038-.138,0.075-0.212,0.113A2.228,2.228,0,0,0,263.39,547.015Zm-27.755,10.1a1.265,1.265,0,0,0,0,1.774,1.3,1.3,0,0,0,.887.362,1.246,1.246,0,0,0,.875-2.136A1.291,1.291,0,0,0,235.635,557.111Zm26.619-15.331a0.76,0.76,0,0,0-.238.075,0.693,0.693,0,0,0-.213.113,1.289,1.289,0,0,0-.188.15,2.239,2.239,0,0,0-.162.187,1,1,0,0,0-.112.224,1.5,1.5,0,0,0-.075.226,1.736,1.736,0,0,0-.025.25,1.274,1.274,0,0,0,.374.887,1.219,1.219,0,0,0,.188.149,0.693,0.693,0,0,0,.213.113,0.76,0.76,0,0,0,.238.075,1.443,1.443,0,0,0,.236.025,1.629,1.629,0,0,0,.251-0.025,0.81,0.81,0,0,0,.224-0.075,0.919,0.919,0,0,0,.226-0.113l0.187-.149c0.053-.06.1-0.122,0.15-0.187a0.953,0.953,0,0,0,.112-0.226,0.819,0.819,0,0,0,.076-0.225,1.309,1.309,0,0,0,0-.5,0.814,0.814,0,0,0-.076-0.226,0.939,0.939,0,0,0-.112-0.224,1.806,1.806,0,0,0-.15-0.187A1.281,1.281,0,0,0,262.254,541.78Zm-21.232,19.729c-0.038-.076-0.076-0.151-0.113-0.213a0.81,0.81,0,0,0-.162-0.188,1.092,1.092,0,0,0-.4-0.274,1.283,1.283,0,0,0-.963,0,1.08,1.08,0,0,0-.4.274,0.814,0.814,0,0,0-.163.188c-0.037.062-.075,0.138-0.113,0.213s-0.05.149-.074,0.237a1.455,1.455,0,0,0-.025.237,1.272,1.272,0,0,0,1.737,1.162,1.276,1.276,0,0,0,.4-0.275,1.252,1.252,0,0,0,.375-0.887,1.456,1.456,0,0,0-.026-0.237C241.071,561.658,241.046,561.583,241.022,561.509Zm17.245-21.616a1.213,1.213,0,0,0,.875.375,1.629,1.629,0,0,0,.25-0.025,0.855,0.855,0,0,0,.236-0.075,0.822,0.822,0,0,0,.213-0.113,2.06,2.06,0,0,0,.188-0.162,1.274,1.274,0,0,0,.274-0.4,1.287,1.287,0,0,0-.274-1.363,1.035,1.035,0,0,0-.188-0.149,0.913,0.913,0,0,0-.449-0.188,1.239,1.239,0,0,0-1.4,1.7A1.079,1.079,0,0,0,258.267,539.893Zm-13.01,23.814a1.293,1.293,0,0,0-1.762,0,1.17,1.17,0,0,0-.362.887,1.207,1.207,0,0,0,.088.475,1.267,1.267,0,0,0,.274.4,1.222,1.222,0,0,0,1.762,0,1.254,1.254,0,0,0,.275-0.4,1.211,1.211,0,0,0,.1-0.475,1.358,1.358,0,0,0-.1-0.487A1.254,1.254,0,0,0,245.257,563.707Zm8.686-26.25c0.062,0.037.138,0.075,0.212,0.113a1.771,1.771,0,0,0,.238.062,0.787,0.787,0,0,0,.237.025,0.841,0.841,0,0,0,.25-0.025,1.771,1.771,0,0,0,.238-0.062c0.075-.038.137-0.076,0.212-0.113a1.116,1.116,0,0,0,.187-0.163,1.251,1.251,0,0,0,0-1.761,1.163,1.163,0,0,0-.187-0.163,2.038,2.038,0,0,0-.212-0.112,1.935,1.935,0,0,0-.238-0.075,1.59,1.59,0,0,0-.487,0,1.824,1.824,0,0,0-.238.075c-0.074.037-.15,0.075-0.212,0.112a0.839,0.839,0,0,0-.188.163,1.222,1.222,0,0,0,0,1.762A0.81,0.81,0,0,0,253.943,537.457ZM280.748,553a2.5,2.5,0,0,0,2.5-2.5v-3.926a5,5,0,1,0-2.5,0V550.5h-10a21.091,21.091,0,0,0-6.223-15.018A21.337,21.337,0,0,0,262,533.35v-1.59h17.5a2.5,2.5,0,0,0,2.5-2.5v-2.676a5,5,0,1,0-2.5,0v2.676H262a2.5,2.5,0,0,0-2.5,2.488,21.078,21.078,0,0,0-8.749-2.427v-2.56h5a2.5,2.5,0,0,0,2.5-2.5v-1.426a5,5,0,1,0-2.5,0v1.427h-5a2.5,2.5,0,0,0-2.5,2.5v2.56a21.221,21.221,0,0,0-5,.871v-9.678a2.5,2.5,0,0,0-2.5-2.5H228.085a5,5,0,1,0,0,2.5h12.674v10.643a21.207,21.207,0,0,0-11.565,13.1H218.265V537.83a5,5,0,1,0-2.5,0v6.425a2.5,2.5,0,0,0,2.5,2.5h10.342a21.418,21.418,0,0,0-.345,3.748h-2.5a2.5,2.5,0,0,0-2.5,2.5v17.492h-1.427a5,5,0,1,0,0,2.5h1.427a2.5,2.5,0,0,0,2.5-2.5V553h2.66a21.145,21.145,0,0,0,12.336,16.845v11.891h-7.675a5,5,0,1,0,0,2.5h7.675a2.5,2.5,0,0,0,2.5-2.5V570.809a21.272,21.272,0,0,0,5,.871v2.56a2.5,2.5,0,0,0,2.5,2.5H259.5v1.426a5,5,0,1,0,2.5,0v-1.426a2.5,2.5,0,0,0-2.5-2.5h-8.748v-2.56a21.072,21.072,0,0,0,13.772-6.161,21.29,21.29,0,0,0,3.735-5.023h9.986v12.672a5,5,0,1,0,2.5,0V560.5a2.5,2.5,0,0,0-2.5-2.5h-8.877a21.072,21.072,0,0,0,1.219-5h10.157ZM279.5,541.755a2.5,2.5,0,1,1,2.5,2.5A2.5,2.5,0,0,1,279.5,541.755Zm-1.25-19.99a2.5,2.5,0,1,1,2.5,2.5A2.5,2.5,0,0,1,278.249,521.765Zm-23.744-3.749a2.5,2.5,0,1,1,2.5,2.5A2.5,2.5,0,0,1,254.505,518.016Zm-31.241,3.749a2.5,2.5,0,1,1,2.5-2.5A2.5,2.5,0,0,1,223.264,521.765Zm-6.249,13.743a2.5,2.5,0,1,1,2.5-2.5A2.5,2.5,0,0,1,217.015,535.508Zm0,38.732a2.5,2.5,0,1,1,2.5-2.5A2.5,2.5,0,0,1,217.015,574.24Zm11.247,11.245a2.5,2.5,0,1,1,2.5-2.5A2.5,2.5,0,0,1,228.262,585.485Zm32.492-5a2.5,2.5,0,1,1-2.5,2.5A2.5,2.5,0,0,1,260.754,580.487Zm2.007-16.734a18.738,18.738,0,1,1,5.491-13.252A18.746,18.746,0,0,1,262.761,563.753ZM279.5,575.489a2.5,2.5,0,1,1-2.5,2.5A2.5,2.5,0,0,1,279.5,575.489Z" transform="translate(-212 -513)"/>
</svg>
