<svg xmlns="http://www.w3.org/2000/svg" width="52" height="68" viewBox="0 0 52 68">
  <metadata><?xpacket begin="﻿" id="W5M0MpCehiHzreSzNTczkc9d"?>
<x:xmpmeta xmlns:x="adobe:ns:meta/" x:xmptk="Adobe XMP Core 5.6-c138 79.159824, 2016/09/14-01:09:01        ">
   <rdf:RDF xmlns:rdf="http://www.w3.org/1999/02/22-rdf-syntax-ns#">
      <rdf:Description rdf:about=""/>
   </rdf:RDF>
</x:xmpmeta>
                                                                                                    
                                                                                                    
                                                                                                    
                                                                                                    
                                                                                                    
                                                                                                    
                                                                                                    
                                                                                                    
                                                                                                    
                                                                                                    
                                                                                                    
                                                                                                    
                                                                                                    
                                                                                                    
                                                                                                    
                                                                                                    
                                                                                                    
                                                                                                    
                                                                                                    
                                                                                                    
                           
<?xpacket end="w"?></metadata>
  <path class="cls-1" d="M1170.35,531.151h-2.06a12.283,12.283,0,0,0-17-3.706c-0.13.079-.25,0.159-0.37,0.242a12.435,12.435,0,1,0-23.12,3.8,5.664,5.664,0,0,0-3.8,5.325v38.519a5.661,5.661,0,0,0,5.65,5.665h40.7a5.661,5.661,0,0,0,5.65-5.665V536.816A5.661,5.661,0,0,0,1170.35,531.151Zm-12.45-3.4a10.142,10.142,0,0,1,8.81,5.1,10.258,10.258,0,0,1,1.38,5.1,10.094,10.094,0,0,1-.59,3.4h-2.45a7.911,7.911,0,0,0-2.77-10.007,8.008,8.008,0,0,0-8.74,0,7.911,7.911,0,0,0-2.77,10.007h-2.45a10.338,10.338,0,0,1-.58-3.4A10.174,10.174,0,0,1,1157.9,527.75Zm4.75,13.236c-0.08.124-.16,0.244-0.25,0.361h-8.97a5.611,5.611,0,0,1,1.36-8.119,5.718,5.718,0,0,1,6.24,0A5.608,5.608,0,0,1,1162.65,540.986Zm-23.95-25.7a10.2,10.2,0,1,1-10.18,10.2A10.187,10.187,0,0,1,1138.7,515.29Zm-12.44,21.526a3.4,3.4,0,0,1,2.9-3.349,12.386,12.386,0,0,0,16.54,2.312,11.53,11.53,0,0,0,.27,5.569h-16.32a3.4,3.4,0,0,1-3.39-3.4v-1.133Zm14.7,26.057a1.133,1.133,0,1,1,1.13-1.133A1.128,1.128,0,0,1,1140.96,562.873Zm32.78-1.133h-19.22a3.4,3.4,0,0,1,0-6.8h19.22v6.8Zm0-9.063h-19.22a5.665,5.665,0,0,0,0,11.329h19.22v11.329a3.4,3.4,0,0,1-3.39,3.4h-22.61v-5.1l3.77-2.832h2.09a3.4,3.4,0,1,0,0-2.266h-2.47a1.154,1.154,0,0,0-.68.226l-4.52,3.4a1.146,1.146,0,0,0-.45.907v5.664h-3.39v-13.8a3.393,3.393,0,1,0-2.26,0v13.8h-3.4v-9.063a1.1,1.1,0,0,0-.33-0.8l-3.06-3.067v-5.4a3.378,3.378,0,1,0-2.26,0v5.873a1.143,1.143,0,0,0,.33.8l3.06,3.067v8.594h-4.52a3.4,3.4,0,0,1-3.39-3.4V542.451a5.589,5.589,0,0,0,3.39,1.162h40.7a5.589,5.589,0,0,0,3.39-1.162v10.226h0Zm-18.09,16.994a1.13,1.13,0,1,1,1.13,1.133A1.134,1.134,0,0,1,1155.65,569.671Zm-23.74-11.33a1.133,1.133,0,1,1,1.13-1.132A1.134,1.134,0,0,1,1131.91,558.341Zm41.83-20.392a3.4,3.4,0,0,1-3.39,3.4h-0.49a12.191,12.191,0,0,0-.38-7.931h0.87a3.4,3.4,0,0,1,3.39,3.4v1.133Zm-35.04-20.393a7.931,7.931,0,1,0,7.91,7.93A7.928,7.928,0,0,0,1138.7,517.556Zm0,13.595a5.665,5.665,0,1,1,5.65-5.665A5.66,5.66,0,0,1,1138.7,531.151Zm14.69-18.127h2.26v2.266h-2.26v-2.266Zm0,4.532h2.26v5.665h-2.26v-5.665Zm4.52-4.532h2.26v2.266h-2.26v-2.266Zm0,4.532h2.26v5.665h-2.26v-5.665Z" transform="translate(-1124 -513)"/>
</svg>
