<svg xmlns="http://www.w3.org/2000/svg" width="28.031" height="28" viewBox="0 0 28.031 28">
  <metadata><?xpacket begin="﻿" id="W5M0MpCehiHzreSzNTczkc9d"?>
<x:xmpmeta xmlns:x="adobe:ns:meta/" x:xmptk="Adobe XMP Core 5.6-c138 79.159824, 2016/09/14-01:09:01        ">
   <rdf:RDF xmlns:rdf="http://www.w3.org/1999/02/22-rdf-syntax-ns#">
      <rdf:Description rdf:about=""/>
   </rdf:RDF>
</x:xmpmeta>
                                                                                                    
                                                                                                    
                                                                                                    
                                                                                                    
                                                                                                    
                                                                                                    
                                                                                                    
                                                                                                    
                                                                                                    
                                                                                                    
                                                                                                    
                                                                                                    
                                                                                                    
                                                                                                    
                                                                                                    
                                                                                                    
                                                                                                    
                                                                                                    
                                                                                                    
                                                                                                    
                           
<?xpacket end="w"?></metadata>
<defs>
    <style>
      .cls-1 {
        fill: #605f60;
        fill-rule: evenodd;
      }
    </style>
  </defs>
  <path id="Icon" class="cls-1" d="M763.446,222.509a0.882,0.882,0,0,0,.883-0.882V211.388a2.651,2.651,0,0,0-2.648-2.648H751.115a2.647,2.647,0,0,0-4.992,0h-1.741a2.651,2.651,0,0,0-2.648,2.648V226.04a3.535,3.535,0,0,0,3.531,3.53H760.8a3.535,3.535,0,0,0,3.53-3.53,0.883,0.883,0,1,0-1.765,0,1.767,1.767,0,0,1-1.765,1.765H745.265a1.767,1.767,0,0,1-1.766-1.765V214.08h1.236a0.883,0.883,0,1,0,0-1.765H743.5v-0.927a0.884,0.884,0,0,1,.883-0.883h1.767a10.28,10.28,0,0,0,.824,1.692c0.3,0.511.59,0.965,0.763,1.226v8.182a4.568,4.568,0,0,0,9.135,0,6.083,6.083,0,0,0-2.135-4.246,0.881,0.881,0,0,0-1.484.644v2.344a0.881,0.881,0,0,0,1.691.348,2.8,2.8,0,1,1-5.442.91v-8.177c0.175-.258.467-0.7,0.762-1.2a9.723,9.723,0,0,0,.834-1.718h4.514a2.641,2.641,0,0,0,.016,1.81h-3.169a0.883,0.883,0,1,0,0,1.765h10.106v7.547A0.882,0.882,0,0,0,763.446,222.509Zm-14.7-11.189-0.121.2c-0.039-.064-0.077-0.13-0.116-0.2a4.872,4.872,0,0,1-.773-1.7,0.883,0.883,0,1,1,1.765,0A4.487,4.487,0,0,1,748.746,211.32Zm9.361,0.951a0.883,0.883,0,1,1,.882-0.883A0.884,0.884,0,0,1,758.107,212.271Zm3.53,0a0.883,0.883,0,1,1,.883-0.883A0.884,0.884,0,0,1,761.637,212.271ZM740.882,233a0.883,0.883,0,0,1-.624-1.507l26.235-26.235a0.882,0.882,0,0,1,1.248,1.248l-26.235,26.235A0.877,0.877,0,0,1,740.882,233Z" transform="translate(-740 -205)"/>
</svg>
