<svg xmlns="http://www.w3.org/2000/svg" width="27" height="19" viewBox="0 0 27 19">
  <metadata><?xpacket begin="﻿" id="W5M0MpCehiHzreSzNTczkc9d"?>
<x:xmpmeta xmlns:x="adobe:ns:meta/" x:xmptk="Adobe XMP Core 5.6-c138 79.159824, 2016/09/14-01:09:01        ">
   <rdf:RDF xmlns:rdf="http://www.w3.org/1999/02/22-rdf-syntax-ns#">
      <rdf:Description rdf:about=""/>
   </rdf:RDF>
</x:xmpmeta>
                                                                                                    
                                                                                                    
                                                                                                    
                                                                                                    
                                                                                                    
                                                                                                    
                                                                                                    
                                                                                                    
                                                                                                    
                                                                                                    
                                                                                                    
                                                                                                    
                                                                                                    
                                                                                                    
                                                                                                    
                                                                                                    
                                                                                                    
                                                                                                    
                                                                                                    
                                                                                                    
                           
<?xpacket end="w"?></metadata>
<defs>
    <style>
      .cls-1 {
        fill: #605f60;
        fill-rule: evenodd;
      }
    </style>
  </defs>
  <path id="Icon" class="cls-1" d="M764.627,327H742.373A2.361,2.361,0,0,0,740,329.343v14.314A2.361,2.361,0,0,0,742.373,346h22.254A2.361,2.361,0,0,0,767,343.657V329.343A2.361,2.361,0,0,0,764.627,327Zm0.791,16.657a0.787,0.787,0,0,1-.791.781H742.373a0.787,0.787,0,0,1-.791-0.781v-11.22h23.836v11.22Zm0-12.783H741.582v-1.531a0.787,0.787,0,0,1,.791-0.781h22.254a0.787,0.787,0,0,1,.791.781v1.531Zm-16.361,3.609a2.545,2.545,0,0,0-2.559,2.526v3.409a0.791,0.791,0,0,0,1.582,0v-1.481h1.953v1.481a0.791,0.791,0,0,0,1.582,0v-3.409A2.545,2.545,0,0,0,749.057,334.483Zm0.976,2.892H748.08v-0.366h0a0.977,0.977,0,0,1,1.953,0v0.366h0Zm5.537-2.892H753.5a0.786,0.786,0,0,0-.791.781v5.154a0.791,0.791,0,0,0,1.582,0v-1.481h1.279A2.227,2.227,0,1,0,755.57,334.483Zm0,2.892h-1.279v-1.33h1.279A0.665,0.665,0,1,1,755.57,337.375Zm4.141-2.892a0.787,0.787,0,0,0-.792.781v5.154a0.792,0.792,0,0,0,1.583,0v-5.154A0.787,0.787,0,0,0,759.711,334.483Z" transform="translate(-740 -327)"/>
</svg>
