<svg xmlns="http://www.w3.org/2000/svg" width="31.031" height="24.844" viewBox="0 0 31.031 24.844">
  <metadata><?xpacket begin="﻿" id="W5M0MpCehiHzreSzNTczkc9d"?>
<x:xmpmeta xmlns:x="adobe:ns:meta/" x:xmptk="Adobe XMP Core 5.6-c138 79.159824, 2016/09/14-01:09:01        ">
   <rdf:RDF xmlns:rdf="http://www.w3.org/1999/02/22-rdf-syntax-ns#">
      <rdf:Description rdf:about=""/>
   </rdf:RDF>
</x:xmpmeta>
                                                                                                    
                                                                                                    
                                                                                                    
                                                                                                    
                                                                                                    
                                                                                                    
                                                                                                    
                                                                                                    
                                                                                                    
                                                                                                    
                                                                                                    
                                                                                                    
                                                                                                    
                                                                                                    
                                                                                                    
                                                                                                    
                                                                                                    
                                                                                                    
                                                                                                    
                                                                                                    
                           
<?xpacket end="w"?></metadata>
<defs>
    <style>
      .cls-1 {
        fill: #ffad29;
        fill-rule: evenodd;
      }
    </style>
  </defs>
  <path id="email" class="cls-1" d="M844.947,762.809q0.59,0.423,3.55,2.515t4.537,3.221q0.173,0.123.735,0.538c0.376,0.277.687,0.5,0.936,0.671s0.548,0.362.9,0.574a5.241,5.241,0,0,0,1,.476,2.7,2.7,0,0,0,.866.159H857.5a2.708,2.708,0,0,0,.866-0.159,5.263,5.263,0,0,0,1-.476q0.528-.318.9-0.574t0.935-.671q0.563-.415.736-0.538,1.593-1.129,8.1-5.736a8.317,8.317,0,0,0,2.112-2.171,4.725,4.725,0,0,0,.849-2.665,2.733,2.733,0,0,0-.823-2,2.651,2.651,0,0,0-1.948-.829h-25.49a2.455,2.455,0,0,0-2.052.917,3.61,3.61,0,0,0-.718,2.295,4.166,4.166,0,0,0,.952,2.409A8.67,8.67,0,0,0,844.947,762.809Zm26.321,1.888q-5.679,3.918-8.623,6.09-0.987.741-1.6,1.156a9.826,9.826,0,0,1-1.637.847,4.91,4.91,0,0,1-1.9.432h-0.035a4.914,4.914,0,0,1-1.9-.432,9.811,9.811,0,0,1-1.636-.847q-0.615-.415-1.6-1.156-2.338-1.748-8.606-6.09a9.219,9.219,0,0,1-1.749-1.535v14.014a2.746,2.746,0,0,0,.813,1.994,2.645,2.645,0,0,0,1.957.83h25.49a2.645,2.645,0,0,0,1.957-.83,2.742,2.742,0,0,0,.814-1.994V763.162A9.625,9.625,0,0,1,871.268,764.7Z" transform="translate(-841.969 -755.156)"/>
</svg>
