<svg xmlns="http://www.w3.org/2000/svg" width="20" height="23" viewBox="0 0 20 23">
  <metadata><?xpacket begin="﻿" id="W5M0MpCehiHzreSzNTczkc9d"?>
<x:xmpmeta xmlns:x="adobe:ns:meta/" x:xmptk="Adobe XMP Core 5.6-c138 79.159824, 2016/09/14-01:09:01        ">
   <rdf:RDF xmlns:rdf="http://www.w3.org/1999/02/22-rdf-syntax-ns#">
      <rdf:Description rdf:about=""/>
   </rdf:RDF>
</x:xmpmeta>
                                                                                                    
                                                                                                    
                                                                                                    
                                                                                                    
                                                                                                    
                                                                                                    
                                                                                                    
                                                                                                    
                                                                                                    
                                                                                                    
                                                                                                    
                                                                                                    
                                                                                                    
                                                                                                    
                                                                                                    
                                                                                                    
                                                                                                    
                                                                                                    
                                                                                                    
                                                                                                    
                           
<?xpacket end="w"?></metadata>
<defs>
    <style>
      .cls-1 {
        fill: #ffad29;
        fill-rule: evenodd;
      }
    </style>
  </defs>
  <path class="cls-1" d="M1352.73,169.227h-0.54v-2.715a0.453,0.453,0,0,0-.11-0.292l-4.35-5.066s0,0-.01,0a0.319,0.319,0,0,0-.08-0.075c-0.01-.007-0.02-0.012-0.03-0.018a0.57,0.57,0,0,0-.09-0.037,0.038,0.038,0,0,1-.02-0.008,0.516,0.516,0,0,0-.11-0.013h-10.7a0.889,0.889,0,0,0-.88.9v7.325h-0.54a1.28,1.28,0,0,0-1.27,1.289v6.7a1.281,1.281,0,0,0,1.27,1.289h0.54V183.1a0.889,0.889,0,0,0,.88.9h14.62a0.9,0.9,0,0,0,.88-0.9v-4.589h0.54a1.28,1.28,0,0,0,1.27-1.289v-6.7A1.28,1.28,0,0,0,1352.73,169.227Zm-16.04-7.325h10.26v4.615a0.448,0.448,0,0,0,.44.451h3.92v2.259h-14.62V161.9Zm8.98,12.3a1.756,1.756,0,0,1-1.44-1.575,1.722,1.722,0,0,1,1.98-1.607,3.22,3.22,0,0,1,1.34.269l-0.27.973a2.449,2.449,0,0,0-1.09-.253,0.629,0.629,0,0,0-.77.515c0,0.34.3,0.49,0.98,0.751a1.686,1.686,0,0,1,1.36,1.591c0,0.895-.68,1.654-2.12,1.654a3.335,3.335,0,0,1-1.48-.324l0.24-1a2.99,2.99,0,0,0,1.31.332c0.55,0,.83-0.229.83-0.578C1346.54,174.619,1346.29,174.429,1345.67,174.2Zm-2.01,1.226v1.013h-3.27v-5.334h1.19v4.321h2.08Zm-7.07,1.013h-1.35l1.51-2.7-1.46-2.636h1.36l0.46,0.974c0.16,0.325.27,0.585,0.4,0.887h0.01c0.13-.341.23-0.578,0.36-0.887l0.44-.974h1.35l-1.47,2.6,1.55,2.731h-1.37l-0.47-.966c-0.19-.371-0.32-0.649-0.47-0.957h-0.01c-0.11.308-.24,0.586-0.41,0.957Zm14.72,6.415h-14.62v-4.345h14.62v4.345h0Zm0-6.415-0.47-.965c-0.19-.372-0.32-0.649-0.47-0.958h-0.01c-0.11.309-.24,0.586-0.41,0.958l-0.43.965h-1.35l1.51-2.7-1.46-2.636h1.36l0.46,0.974c0.16,0.325.27,0.585,0.4,0.887h0.01c0.13-.341.23-0.578,0.36-0.887l0.44-.974h1.35l-1.47,2.6,1.55,2.731h-1.37Z" transform="translate(-1334 -161)"/>
</svg>
