<svg xmlns="http://www.w3.org/2000/svg" width="10" height="18" viewBox="0 0 10 18">
  <metadata><?xpacket begin="﻿" id="W5M0MpCehiHzreSzNTczkc9d"?>
<x:xmpmeta xmlns:x="adobe:ns:meta/" x:xmptk="Adobe XMP Core 5.6-c138 79.159824, 2016/09/14-01:09:01        ">
   <rdf:RDF xmlns:rdf="http://www.w3.org/1999/02/22-rdf-syntax-ns#">
      <rdf:Description rdf:about=""/>
   </rdf:RDF>
</x:xmpmeta>
                                                                                                    
                                                                                                    
                                                                                                    
                                                                                                    
                                                                                                    
                                                                                                    
                                                                                                    
                                                                                                    
                                                                                                    
                                                                                                    
                                                                                                    
                                                                                                    
                                                                                                    
                                                                                                    
                                                                                                    
                                                                                                    
                                                                                                    
                                                                                                    
                                                                                                    
                                                                                                    
                           
<?xpacket end="w"?></metadata>
<defs>
    <style>
      .cls-1 {
        fill: #fff;
        fill-rule: evenodd;
      }
    </style>
  </defs>
  <path class="cls-1" d="M89.623,1030h-2.4a4.155,4.155,0,0,0-4.436,4.43v2.04H80.377a0.376,0.376,0,0,0-.377.37v2.96a0.376,0.376,0,0,0,.377.37h2.412v7.46a0.37,0.37,0,0,0,.377.37h3.146a0.37,0.37,0,0,0,.377-0.37v-7.46h2.82a0.376,0.376,0,0,0,.377-0.37v-2.96a0.361,0.361,0,0,0-.111-0.26,0.38,0.38,0,0,0-.267-0.11H86.689v-1.73c0-.83.2-1.25,1.318-1.25l1.616-.01a0.368,0.368,0,0,0,.377-0.36v-2.75A0.376,0.376,0,0,0,89.623,1030Z" transform="translate(-80 -1030)"/>
</svg>
