<svg xmlns="http://www.w3.org/2000/svg" width="16" height="16" viewBox="0 0 16 16">
  <metadata><?xpacket begin="﻿" id="W5M0MpCehiHzreSzNTczkc9d"?>
<x:xmpmeta xmlns:x="adobe:ns:meta/" x:xmptk="Adobe XMP Core 5.6-c138 79.159824, 2016/09/14-01:09:01        ">
   <rdf:RDF xmlns:rdf="http://www.w3.org/1999/02/22-rdf-syntax-ns#">
      <rdf:Description rdf:about=""/>
   </rdf:RDF>
</x:xmpmeta>
                                                                                                    
                                                                                                    
                                                                                                    
                                                                                                    
                                                                                                    
                                                                                                    
                                                                                                    
                                                                                                    
                                                                                                    
                                                                                                    
                                                                                                    
                                                                                                    
                                                                                                    
                                                                                                    
                                                                                                    
                                                                                                    
                                                                                                    
                                                                                                    
                                                                                                    
                                                                                                    
                           
<?xpacket end="w"?></metadata>
<defs>
    <style>
      .cls-1 {
        fill: #3c3c3c;
        fill-rule: evenodd;
      }
    </style>
  </defs>
  <path class="cls-1" d="M212.128,632.516a1.981,1.981,0,0,0-.955-1.592l-0.409-.319a0.622,0.622,0,0,1-.3-0.489,0.8,0.8,0,0,1,.319-0.557,1.852,1.852,0,0,0,.147-3.15h0.705l0.728-.409h-2.343a3.1,3.1,0,0,0-2.036.625,2.048,2.048,0,0,0-.727,1.524,1.8,1.8,0,0,0,1.887,1.786c0.115,0,.239-0.012.365-0.023a1.018,1.018,0,0,0-.114.444,1.2,1.2,0,0,0,.341.773,4.886,4.886,0,0,0-2.171.523,1.635,1.635,0,0,0-.876,1.387c0,0.842.8,1.626,2.445,1.626C211.093,634.665,212.128,633.585,212.128,632.516Zm-2.445-2.9c-0.978,0-1.422-1.263-1.422-2.024a1.316,1.316,0,0,1,.25-0.842,1.067,1.067,0,0,1,.8-0.376c0.944,0,1.432,1.274,1.432,2.093a1.147,1.147,0,0,1-.284.83A1.168,1.168,0,0,1,209.683,629.617Zm0.011,4.571c-1.216,0-2-.58-2-1.387a1.278,1.278,0,0,1,.978-1.171,4.582,4.582,0,0,1,1.194-.183,1.733,1.733,0,0,1,.261.012c0.865,0.614,1.24.921,1.24,1.5C211.366,633.665,210.786,634.188,209.694,634.188Zm2.536-3.88h1.232v1.23h0.615v-1.23h1.231v-0.616h-1.231v-1.23h-0.615v1.23H212.23v0.616ZM219,630a8,8,0,1,0-8,8A8,8,0,0,0,219,630Zm-15.273,0A7.273,7.273,0,1,1,211,637.273,7.273,7.273,0,0,1,203.727,630Z" transform="translate(-203 -622)"/>
</svg>
