<svg xmlns="http://www.w3.org/2000/svg" width="20" height="20" viewBox="0 0 20 20">
  <metadata><?xpacket begin="﻿" id="W5M0MpCehiHzreSzNTczkc9d"?>
<x:xmpmeta xmlns:x="adobe:ns:meta/" x:xmptk="Adobe XMP Core 5.6-c138 79.159824, 2016/09/14-01:09:01        ">
   <rdf:RDF xmlns:rdf="http://www.w3.org/1999/02/22-rdf-syntax-ns#">
      <rdf:Description rdf:about=""/>
   </rdf:RDF>
</x:xmpmeta>
                                                                                                    
                                                                                                    
                                                                                                    
                                                                                                    
                                                                                                    
                                                                                                    
                                                                                                    
                                                                                                    
                                                                                                    
                                                                                                    
                                                                                                    
                                                                                                    
                                                                                                    
                                                                                                    
                                                                                                    
                                                                                                    
                                                                                                    
                                                                                                    
                                                                                                    
                                                                                                    
                           
<?xpacket end="w"?></metadata>
<defs>
    <style>
      .cls-1 {
        fill: #fff;
        fill-rule: evenodd;
      }
    </style>
  </defs>
  <path class="cls-1" d="M156.75,1029h-7.5a6.252,6.252,0,0,0-6.25,6.25v7.5a6.252,6.252,0,0,0,6.25,6.25h7.5a6.252,6.252,0,0,0,6.25-6.25v-7.5A6.252,6.252,0,0,0,156.75,1029Zm4.375,13.75a4.377,4.377,0,0,1-4.375,4.37h-7.5a4.377,4.377,0,0,1-4.375-4.37v-7.5a4.385,4.385,0,0,1,4.375-4.38h7.5a4.386,4.386,0,0,1,4.375,4.38v7.5ZM153,1034a5,5,0,1,0,5,5A5,5,0,0,0,153,1034Zm0,8.12a3.125,3.125,0,1,1,3.125-3.12A3.126,3.126,0,0,1,153,1042.12Zm5.375-9.16a0.665,0.665,0,1,1-.666.66A0.666,0.666,0,0,1,158.375,1032.96Z" transform="translate(-143 -1029)"/>
</svg>
