<svg xmlns="http://www.w3.org/2000/svg" width="28" height="28" viewBox="0 0 28 28">
  <metadata><?xpacket begin="﻿" id="W5M0MpCehiHzreSzNTczkc9d"?>
<x:xmpmeta xmlns:x="adobe:ns:meta/" x:xmptk="Adobe XMP Core 5.6-c138 79.159824, 2016/09/14-01:09:01        ">
   <rdf:RDF xmlns:rdf="http://www.w3.org/1999/02/22-rdf-syntax-ns#">
      <rdf:Description rdf:about=""/>
   </rdf:RDF>
</x:xmpmeta>
                                                                                                    
                                                                                                    
                                                                                                    
                                                                                                    
                                                                                                    
                                                                                                    
                                                                                                    
                                                                                                    
                                                                                                    
                                                                                                    
                                                                                                    
                                                                                                    
                                                                                                    
                                                                                                    
                                                                                                    
                                                                                                    
                                                                                                    
                                                                                                    
                                                                                                    
                                                                                                    
                           
<?xpacket end="w"?></metadata>
<defs>
    <style>
      .cls-1 {
        fill: #605f60;
        fill-rule: evenodd;
      }
    </style>
  </defs>
  <path id="Icon" class="cls-1" d="M90.906,715.908a1.751,1.751,0,1,1-1.75,1.751A1.751,1.751,0,0,1,90.906,715.908Zm7.792,3.166a15.951,15.951,0,0,0-3.441-5.411,15.575,15.575,0,0,0-5.37-3.373,4.4,4.4,0,0,0-4.665.989l-4.3,4.275a4.378,4.378,0,0,0-.913,4.853c0.225,0.508.471,1,.733,1.483l-9.427,9.429a1.093,1.093,0,0,0-.32.773v4.814A1.094,1.094,0,0,0,72.094,738h4.812A1.094,1.094,0,0,0,78,736.906v-1.969h1.969a1.094,1.094,0,0,0,1.094-1.094v-1.969h1.969a1.094,1.094,0,0,0,0-2.188H79.969a1.093,1.093,0,0,0-1.094,1.094v1.969H76.906a1.094,1.094,0,0,0-1.094,1.094v1.969H73.187v-3.266l9.7-9.7a1.094,1.094,0,0,0,.162-1.341,17.646,17.646,0,0,1-1.035-1.985,2.178,2.178,0,0,1,.457-2.413l4.3-4.276a2.207,2.207,0,0,1,2.341-.5,13.411,13.411,0,0,1,4.608,2.88,13.762,13.762,0,0,1,2.948,4.661,2.173,2.173,0,0,1-.49,2.335l-4.347,4.327a2.2,2.2,0,0,1-2.407.469,14.136,14.136,0,0,1-1.969-1,1.094,1.094,0,0,0-1.144,1.865,16.543,16.543,0,0,0,2.273,1.16,4.384,4.384,0,0,0,4.79-.939l4.347-4.328A4.359,4.359,0,0,0,98.7,719.074Z" transform="translate(-71 -710)"/>
</svg>
