<svg xmlns="http://www.w3.org/2000/svg" width="16" height="16" viewBox="0 0 16 16">
  <metadata><?xpacket begin="﻿" id="W5M0MpCehiHzreSzNTczkc9d"?>
<x:xmpmeta xmlns:x="adobe:ns:meta/" x:xmptk="Adobe XMP Core 5.6-c138 79.159824, 2016/09/14-01:09:01        ">
   <rdf:RDF xmlns:rdf="http://www.w3.org/1999/02/22-rdf-syntax-ns#">
      <rdf:Description rdf:about=""/>
   </rdf:RDF>
</x:xmpmeta>
                                                                                                    
                                                                                                    
                                                                                                    
                                                                                                    
                                                                                                    
                                                                                                    
                                                                                                    
                                                                                                    
                                                                                                    
                                                                                                    
                                                                                                    
                                                                                                    
                                                                                                    
                                                                                                    
                                                                                                    
                                                                                                    
                                                                                                    
                                                                                                    
                                                                                                    
                                                                                                    
                           
<?xpacket end="w"?></metadata>
<defs>
    <style>
      .cls-lvl {
        fill: #ffad29;
        fill-rule: evenodd;
      }
    </style>
  </defs>
  <path id="Lvl" class="cls-lvl" d="M214.927,183.984a7.968,7.968,0,0,0-2.911-2.911,8.05,8.05,0,0,0-8.031,0,7.963,7.963,0,0,0-2.912,2.911,8.052,8.052,0,0,0,0,8.032,7.975,7.975,0,0,0,2.911,2.911,8.052,8.052,0,0,0,8.032,0,7.968,7.968,0,0,0,2.911-2.911A8.052,8.052,0,0,0,214.927,183.984Zm-1.729,5.484-1.062,1.063a0.654,0.654,0,0,1-.938,0l-3.2-3.2-3.2,3.2a0.653,0.653,0,0,1-.937,0l-1.063-1.063a0.653,0.653,0,0,1,0-.937l4.729-4.729a0.654,0.654,0,0,1,.938,0l4.729,4.729A0.653,0.653,0,0,1,213.2,189.468Z" transform="translate(-200 -180)"/>
</svg>
