<svg xmlns="http://www.w3.org/2000/svg" width="41.906" height="42" viewBox="0 0 41.906 42">
  <metadata><?xpacket begin="﻿" id="W5M0MpCehiHzreSzNTczkc9d"?>
<x:xmpmeta xmlns:x="adobe:ns:meta/" x:xmptk="Adobe XMP Core 5.6-c138 79.159824, 2016/09/14-01:09:01        ">
   <rdf:RDF xmlns:rdf="http://www.w3.org/1999/02/22-rdf-syntax-ns#">
      <rdf:Description rdf:about=""/>
   </rdf:RDF>
</x:xmpmeta>
                                                                                                    
                                                                                                    
                                                                                                    
                                                                                                    
                                                                                                    
                                                                                                    
                                                                                                    
                                                                                                    
                                                                                                    
                                                                                                    
                                                                                                    
                                                                                                    
                                                                                                    
                                                                                                    
                                                                                                    
                                                                                                    
                                                                                                    
                                                                                                    
                                                                                                    
                                                                                                    
                           
<?xpacket end="w"?></metadata>
<defs>
    <style>
      .cls-1 {
        fill: #6663e7;
        fill-rule: evenodd;
      }
    </style>
  </defs>
  <path id="Shape_31_copy" data-name="Shape 31 copy" class="cls-1" d="M839.841,614c-1.262-.328-2.523-0.664-3.789-0.983q-4.812-1.211-9.629-2.4a0.458,0.458,0,0,1-.423-0.542q0.016-15.317.009-30.631V579c1.219,0.3,2.394.591,3.568,0.886,3.328,0.835,6.653,1.68,9.984,2.5a0.478,0.478,0,0,1,.43.578q-0.012,15.234-.006,30.467c0,0.19.013,0.381,0.02,0.572h-0.164Zm28.074-38.4a4.688,4.688,0,0,0-.253.4q-6.069,12.159-12.134,24.322c-0.066.132-.139,0.261-0.237,0.446-0.123-.177-0.221-0.315-0.315-0.456q-4.23-6.361-8.462-12.721a0.5,0.5,0,0,1-.068-0.584q3.723-7.431,7.425-14.87c0.018-.036.045-0.068,0.094-0.143l2.585,0.646q5.549,1.392,11.1,2.784c0.091,0.023.179,0.06,0.269,0.091V575.6Zm0,31.423c-1.488-.381-2.975-0.767-4.464-1.143q-3.285-.83-6.572-1.648c-0.091-.023-0.179-0.057-0.3-0.1,0.051-.121.091-0.23,0.142-0.333q5.5-11.033,11.011-22.066c0.054-.108.123-0.208,0.185-0.312v25.6ZM853.948,603.5l-5.589-1.4c-1.808-.454-3.615-0.914-5.426-1.358a0.349,0.349,0,0,1-.336-0.4q0.012-6.785.007-13.569c0-.053.01-0.107,0.028-0.286Z" transform="translate(-826 -572)"/>
</svg>
