<svg xmlns="http://www.w3.org/2000/svg" width="31.031" height="31.063" viewBox="0 0 31.031 31.063">
  <metadata><?xpacket begin="﻿" id="W5M0MpCehiHzreSzNTczkc9d"?>
<x:xmpmeta xmlns:x="adobe:ns:meta/" x:xmptk="Adobe XMP Core 5.6-c138 79.159824, 2016/09/14-01:09:01        ">
   <rdf:RDF xmlns:rdf="http://www.w3.org/1999/02/22-rdf-syntax-ns#">
      <rdf:Description rdf:about=""/>
   </rdf:RDF>
</x:xmpmeta>
                                                                                                    
                                                                                                    
                                                                                                    
                                                                                                    
                                                                                                    
                                                                                                    
                                                                                                    
                                                                                                    
                                                                                                    
                                                                                                    
                                                                                                    
                                                                                                    
                                                                                                    
                                                                                                    
                                                                                                    
                                                                                                    
                                                                                                    
                                                                                                    
                                                                                                    
                                                                                                    
                           
<?xpacket end="w"?></metadata>
<defs>
    <style>
      .cls-1 {
        fill: #ffad29;
        fill-rule: evenodd;
      }
    </style>
  </defs>
  <path id="mobile" class="cls-1" d="M515.031,770.132a15.255,15.255,0,0,1-22.6,13.249L484,786.064l2.75-8.119a14.975,14.975,0,0,1-2.186-7.813A15.234,15.234,0,0,1,515.031,770.132ZM499.8,757.41a12.779,12.779,0,0,0-12.808,12.722,12.6,12.6,0,0,0,2.44,7.459l-1.6,4.724,4.921-1.566A12.751,12.751,0,1,0,499.8,757.41Zm7.692,16.207a1.9,1.9,0,0,0-.715-0.433c-0.374-.185-2.211-1.083-2.552-1.206a0.585,0.585,0,0,0-.841.185c-0.248.371-.964,1.206-1.182,1.454a0.573,0.573,0,0,1-.809.093,10.2,10.2,0,0,1-3-1.84,11.168,11.168,0,0,1-2.077-2.569,0.537,0.537,0,0,1,.164-0.756c0.168-.166.373-0.433,0.56-0.65a2.478,2.478,0,0,0,.373-0.618,0.676,0.676,0,0,0-.031-0.65c-0.093-.186-0.841-2.011-1.152-2.753s-0.621-.619-0.84-0.619-0.467-.031-0.715-0.031a1.38,1.38,0,0,0-1,.464,4.149,4.149,0,0,0-1.306,3.093,7.171,7.171,0,0,0,1.525,3.836c0.186,0.247,2.582,4.114,6.378,5.6s3.8,0.989,4.482.927a3.778,3.778,0,0,0,2.521-1.763A3.093,3.093,0,0,0,507.49,773.617Z" transform="translate(-484 -755)"/>
</svg>
