<svg xmlns="http://www.w3.org/2000/svg" width="22" height="27" viewBox="0 0 22 27">
  <metadata><?xpacket begin="﻿" id="W5M0MpCehiHzreSzNTczkc9d"?>
<x:xmpmeta xmlns:x="adobe:ns:meta/" x:xmptk="Adobe XMP Core 5.6-c138 79.159824, 2016/09/14-01:09:01        ">
   <rdf:RDF xmlns:rdf="http://www.w3.org/1999/02/22-rdf-syntax-ns#">
      <rdf:Description rdf:about=""/>
   </rdf:RDF>
</x:xmpmeta>
                                                                                                    
                                                                                                    
                                                                                                    
                                                                                                    
                                                                                                    
                                                                                                    
                                                                                                    
                                                                                                    
                                                                                                    
                                                                                                    
                                                                                                    
                                                                                                    
                                                                                                    
                                                                                                    
                                                                                                    
                                                                                                    
                                                                                                    
                                                                                                    
                                                                                                    
                                                                                                    
                           
<?xpacket end="w"?></metadata>
<defs>
    <style>
      .cls-1 {
        fill: #605f60;
        fill-rule: evenodd;
      }
    </style>
  </defs>
  <path id="Icon" class="cls-1" d="M758.765,140.914h-1.944v-4.336a5.829,5.829,0,0,0-11.647,0v4.336h-1.939A3.2,3.2,0,0,0,740,144.078v10.758A3.2,3.2,0,0,0,743.235,158h15.53A3.2,3.2,0,0,0,762,154.836V144.078A3.2,3.2,0,0,0,758.765,140.914Zm-11.434-4.336a3.673,3.673,0,0,1,7.334,0v4.336h-7.334v-4.336h0Zm12.512,18.258a1.069,1.069,0,0,1-1.078,1.055h-15.53a1.069,1.069,0,0,1-1.078-1.055V144.078a1.068,1.068,0,0,1,1.078-1.055h15.53a1.068,1.068,0,0,1,1.078,1.055v10.758ZM751,146.082a1.973,1.973,0,0,0-2,1.951,1.937,1.937,0,0,0,.915,1.64v2.315a1.078,1.078,0,0,0,2.156,0v-2.312a1.939,1.939,0,0,0,.919-1.643A1.973,1.973,0,0,0,751,146.082Z" transform="translate(-740 -131)"/>
</svg>
