<svg xmlns="http://www.w3.org/2000/svg" width="16" height="16" viewBox="0 0 16 16">
  <metadata><?xpacket begin="﻿" id="W5M0MpCehiHzreSzNTczkc9d"?>
<x:xmpmeta xmlns:x="adobe:ns:meta/" x:xmptk="Adobe XMP Core 5.6-c138 79.159824, 2016/09/14-01:09:01        ">
   <rdf:RDF xmlns:rdf="http://www.w3.org/1999/02/22-rdf-syntax-ns#">
      <rdf:Description rdf:about=""/>
   </rdf:RDF>
</x:xmpmeta>
                                                                                                    
                                                                                                    
                                                                                                    
                                                                                                    
                                                                                                    
                                                                                                    
                                                                                                    
                                                                                                    
                                                                                                    
                                                                                                    
                                                                                                    
                                                                                                    
                                                                                                    
                                                                                                    
                                                                                                    
                                                                                                    
                                                                                                    
                                                                                                    
                                                                                                    
                                                                                                    
                           
<?xpacket end="w"?></metadata>
<defs>
    <style>
      .cls-1 {
        fill: #3c3c3c;
        fill-rule: evenodd;
      }
    </style>
  </defs>
  <path class="cls-1" d="M199,630a8,8,0,1,0-8,8A8,8,0,0,0,199,630Zm-15.273,0A7.273,7.273,0,1,1,191,637.273,7.273,7.273,0,0,1,183.727,630Zm2.6-.188,2.084,0.778,0.807,2.595a0.246,0.246,0,0,0,.39.117l1.162-.947a0.347,0.347,0,0,1,.422-0.012l2.1,1.522a0.246,0.246,0,0,0,.385-0.149l1.535-7.384a0.246,0.246,0,0,0-.329-0.279l-8.554,3.3A0.245,0.245,0,0,0,186.323,629.812Zm2.761,0.364,4.074-2.509a0.071,0.071,0,0,1,.085.113l-3.361,3.125a0.689,0.689,0,0,0-.216.417l-0.115.848a0.105,0.105,0,0,1-.206.015l-0.44-1.547A0.412,0.412,0,0,1,189.084,630.176Z" transform="translate(-183 -622)"/>
</svg>
