<svg xmlns="http://www.w3.org/2000/svg" width="46.122" height="37.812" viewBox="0 0 46.122 37.812">
  <metadata><?xpacket begin="﻿" id="W5M0MpCehiHzreSzNTczkc9d"?>
<x:xmpmeta xmlns:x="adobe:ns:meta/" x:xmptk="Adobe XMP Core 5.6-c138 79.159824, 2016/09/14-01:09:01        ">
   <rdf:RDF xmlns:rdf="http://www.w3.org/1999/02/22-rdf-syntax-ns#">
      <rdf:Description rdf:about=""/>
   </rdf:RDF>
</x:xmpmeta>
                                                                                                    
                                                                                                    
                                                                                                    
                                                                                                    
                                                                                                    
                                                                                                    
                                                                                                    
                                                                                                    
                                                                                                    
                                                                                                    
                                                                                                    
                                                                                                    
                                                                                                    
                                                                                                    
                                                                                                    
                                                                                                    
                                                                                                    
                                                                                                    
                                                                                                    
                                                                                                    
                           
<?xpacket end="w"?></metadata>
<defs>
    <style>
      .cls-1 {
        fill: #6663e7;
        fill-rule: evenodd;
      }
    </style>
  </defs>
  <path id="Shape_32_copy" data-name="Shape 32 copy" class="cls-1" d="M1000.41,594.687a2.448,2.448,0,0,1,.17.916,2.849,2.849,0,0,1-.58,1.709,2.738,2.738,0,0,1-1.468,1.025h0a0.05,0.05,0,0,0-.013,0l-0.008,0a2.673,2.673,0,0,1-.856.139,3.07,3.07,0,0,1-1.855-.643,2.737,2.737,0,0,1-1.042-1.671h0a0.02,0.02,0,0,0,0-.007,0.011,0.011,0,0,0,0-.007h0a2.458,2.458,0,0,1-.059-0.529,2.815,2.815,0,0,1,.547-1.64,2.853,2.853,0,0,1,1.377-1.035h0a0.022,0.022,0,0,0,0,0,2.886,2.886,0,0,1,.982-0.173,3.1,3.1,0,0,1,1.7.509,2.712,2.712,0,0,1,1.1,1.386v0.019h0Zm-1.841,7.307a1.491,1.491,0,0,0-.8-0.241,1.264,1.264,0,0,0-.691.206h0a13.587,13.587,0,0,1-6.812,1.851,11.866,11.866,0,0,1-5.166-1.147l-0.008,0-0.008,0a5.6,5.6,0,0,1-.82-0.5,3.063,3.063,0,0,0-.49-0.266,1.5,1.5,0,0,0-.577-0.124,1.32,1.32,0,0,0-.532.117l-0.027.011h0a1.282,1.282,0,0,0-.64.526,1.506,1.506,0,0,0-.038,1.5,1.293,1.293,0,0,0,.529.52,13.867,13.867,0,0,0,7.717,2.213,17.062,17.062,0,0,0,7.1-1.573l0.012-.007,0.011,0c0.289-.169.673-0.32,1.035-0.54a2.272,2.272,0,0,0,.5-0.411,1.542,1.542,0,0,0,.338-0.619h0a1.227,1.227,0,0,0,.042-0.319,1.277,1.277,0,0,0-.133-0.561A1.512,1.512,0,0,0,998.569,601.994Zm-16.128-3.666a0.033,0.033,0,0,1,.013,0,2.631,2.631,0,0,0,.9.158,3.072,3.072,0,0,0,2.021-.791,2.667,2.667,0,0,0,.924-1.98c0-.021,0-0.041,0-0.066s0-.074,0-0.114a2.687,2.687,0,0,0-.914-1.979,3.036,3.036,0,0,0-2.018-.8,2.689,2.689,0,0,0-.6.069H982.75a2.915,2.915,0,0,0-2.184,1.924h0a0.01,0.01,0,0,1,0,0,2.6,2.6,0,0,0-.135.833,2.912,2.912,0,0,0,.558,1.694,2.765,2.765,0,0,0,1.442,1.035Zm31.1-7.117v0a2.937,2.937,0,0,1,.01.3,5.533,5.533,0,0,1-.96,3.06,6.18,6.18,0,0,1-2.21,2.022,11.708,11.708,0,0,1,.09,1.321,10.928,10.928,0,0,1-2.28,6.573h-0.01c-2.67,3.5-6.78,5.569-10.935,6.611h0l0,0a29.2,29.2,0,0,1-6.777.8,27.2,27.2,0,0,1-9.971-1.855v0h0a17.189,17.189,0,0,1-8.342-6.557,10.556,10.556,0,0,1-1.6-5.554,9.755,9.755,0,0,1,.09-1.322,6.411,6.411,0,0,1-2.171-1.97,5.737,5.737,0,0,1-1.018-2.973v-0.017a5.777,5.777,0,0,1,1.706-4,5.627,5.627,0,0,1,3.974-1.746h0.063c0.159-.01.32-0.016,0.481-0.016a6.371,6.371,0,0,1,2.255.4l0,0,0,0a7.583,7.583,0,0,1,1.787,1,5.433,5.433,0,0,1,.59-0.277,24.457,24.457,0,0,1,10.972-2.9,11.773,11.773,0,0,1,1.174-5.447,5.744,5.744,0,0,1,3.644-2.866l0.007,0h0.008a9.6,9.6,0,0,1,1.8-.166,12.781,12.781,0,0,1,4.646.951,5.722,5.722,0,0,1,2.67-2.149l0.01-.006,0.01,0a6.924,6.924,0,0,1,2-.311,5.268,5.268,0,0,1,2.12.426v0a0.073,0.073,0,0,0,.02,0,5.093,5.093,0,0,1,2.37,1.893,5.2,5.2,0,0,1,.93,2.91,3.757,3.757,0,0,1-.04.579v0.014a5.044,5.044,0,0,1-1.79,3.382,5.591,5.591,0,0,1-3.59,1.361,5.09,5.09,0,0,1-.64-0.039,5.379,5.379,0,0,1-3.42-1.645,5.067,5.067,0,0,1-1.473-3.489c0-.064.006-0.13,0.008-0.194a9.746,9.746,0,0,0-3.822-.981c-0.187,0-.374.01-0.561,0.028h0a2.927,2.927,0,0,0-2.305,1.557h0v0a9.335,9.335,0,0,0-.815,4.225,24.944,24.944,0,0,1,10.72,2.967h0.01l0.05,0.027c0.06,0.037.17,0.1,0.28,0.153a5.933,5.933,0,0,1,.73-0.524,6.142,6.142,0,0,1,3.35-.974,6.366,6.366,0,0,1,1.55.194h0l0.02,0.006,0.02,0h0a6.18,6.18,0,0,1,3.1,1.891,5.761,5.761,0,0,1,1.48,3.328v0h-0.01Zm-10.93-11.955v0.161a2.471,2.471,0,0,0,.79,1.661,2.573,2.573,0,0,0,1.71.709h0.02c0.05,0,.09,0,0.14,0a2.59,2.59,0,0,0,1.73-.7,2.411,2.411,0,0,0,.8-1.671l0.01,0v-0.149a2.448,2.448,0,0,0-.8-1.752,2.666,2.666,0,0,0-1.8-.751,2.077,2.077,0,0,0-.61.09h-0.01l-0.01,0a2.735,2.735,0,0,0-1.39.891A2.363,2.363,0,0,0,1002.61,579.256ZM975.2,589.047a3.676,3.676,0,0,0-1.517-.388,2.44,2.44,0,0,0-.256.014h-0.012l-0.011,0a3.193,3.193,0,0,0-2.016.833,2.741,2.741,0,0,0-.945,1.916v0.007l0,0.006c0,0.06-.007.12-0.007,0.177a2.526,2.526,0,0,0,.386,1.3,3.535,3.535,0,0,0,.68.813A13.989,13.989,0,0,1,975.2,589.047Zm32.342,8.97a7.841,7.841,0,0,0-1.57-4.6,15.459,15.459,0,0,0-8.055-5.34l-0.022-.008q-0.9-.272-1.815-0.478a25.678,25.678,0,0,0-12.988.482,15.533,15.533,0,0,0-8.065,5.348v0a7.888,7.888,0,0,0-1.551,4.615,6.7,6.7,0,0,0,.239,1.8l0,0a8.864,8.864,0,0,0,1.928,3.521,13.762,13.762,0,0,0,3.128,2.62c0.254,0.155.509,0.3,0.77,0.446a22.824,22.824,0,0,0,10.982,2.633c0.644,0,1.293-.023,1.933-0.068a21.151,21.151,0,0,0,10.8-3.7v0a12.17,12.17,0,0,0,2.64-2.586,8.336,8.336,0,0,0,1.5-3.309v0h0A6.279,6.279,0,0,0,1007.54,598.017Zm3.03-6.505a2.408,2.408,0,0,0-.29-1.16l-0.01,0v-0.006a2.848,2.848,0,0,0-1.2-1.242,3.635,3.635,0,0,0-3.28-.072,14.281,14.281,0,0,1,3.73,4.707,3.078,3.078,0,0,0,.69-0.852A2.9,2.9,0,0,0,1010.57,591.512Z" transform="translate(-967.438 -574.094)"/>
</svg>
