<svg xmlns="http://www.w3.org/2000/svg" width="27" height="27" viewBox="0 0 27 27">
  <metadata><?xpacket begin="﻿" id="W5M0MpCehiHzreSzNTczkc9d"?>
<x:xmpmeta xmlns:x="adobe:ns:meta/" x:xmptk="Adobe XMP Core 5.6-c138 79.159824, 2016/09/14-01:09:01        ">
   <rdf:RDF xmlns:rdf="http://www.w3.org/1999/02/22-rdf-syntax-ns#">
      <rdf:Description rdf:about=""/>
   </rdf:RDF>
</x:xmpmeta>
                                                                                                    
                                                                                                    
                                                                                                    
                                                                                                    
                                                                                                    
                                                                                                    
                                                                                                    
                                                                                                    
                                                                                                    
                                                                                                    
                                                                                                    
                                                                                                    
                                                                                                    
                                                                                                    
                                                                                                    
                                                                                                    
                                                                                                    
                                                                                                    
                                                                                                    
                                                                                                    
                           
<?xpacket end="w"?></metadata>
<defs>
    <style>
      .cls-1 {
        fill: #605f60;
        fill-rule: evenodd;
      }
    </style>
  </defs>
  <path id="Icon" class="cls-1" d="M95.627,550.434H88.508v-4.061A2.376,2.376,0,0,0,86.135,544H73.373A2.376,2.376,0,0,0,71,546.373v22.254A2.376,2.376,0,0,0,73.373,571H86.135a2.376,2.376,0,0,0,2.373-2.373v-4.419l2.7-2.7h4.419A2.376,2.376,0,0,0,98,559.135v-6.328A2.375,2.375,0,0,0,95.627,550.434Zm-23.045-4.061a0.792,0.792,0,0,1,.791-0.791H86.135a0.792,0.792,0,0,1,.791.791v0.791H72.582v-0.791Zm14.344,22.254a0.792,0.792,0,0,1-.791.791H73.373a0.792,0.792,0,0,1-.791-0.791v-2.373H86.926v2.373Zm0-3.955H72.582V548.746H86.926v1.688H86.135a2.375,2.375,0,0,0-2.373,2.373v6.328a2.376,2.376,0,0,0,2.373,2.373h0.791v3.164Zm9.492-5.537a0.792,0.792,0,0,1-.791.791H90.881a0.792,0.792,0,0,0-.559.231l-1.814,1.814v-1.254h0a0.791,0.791,0,0,0-.791-0.791H86.135a0.792,0.792,0,0,1-.791-0.791v-6.328a0.791,0.791,0,0,1,.791-0.791h9.492a0.791,0.791,0,0,1,.791.791v6.328ZM94.045,553.6H87.717a0.791,0.791,0,1,0,0,1.582h6.328A0.791,0.791,0,1,0,94.045,553.6Zm-3.164,3.164H87.717a0.791,0.791,0,1,0,0,1.582h3.164A0.791,0.791,0,0,0,90.881,556.762Z" transform="translate(-71 -544)"/>
</svg>
