<svg xmlns="http://www.w3.org/2000/svg" width="41.91" height="42" viewBox="0 0 41.91 42">
  <metadata><?xpacket begin="﻿" id="W5M0MpCehiHzreSzNTczkc9d"?>
<x:xmpmeta xmlns:x="adobe:ns:meta/" x:xmptk="Adobe XMP Core 5.6-c138 79.159824, 2016/09/14-01:09:01        ">
   <rdf:RDF xmlns:rdf="http://www.w3.org/1999/02/22-rdf-syntax-ns#">
      <rdf:Description rdf:about=""/>
   </rdf:RDF>
</x:xmpmeta>
                                                                                                    
                                                                                                    
                                                                                                    
                                                                                                    
                                                                                                    
                                                                                                    
                                                                                                    
                                                                                                    
                                                                                                    
                                                                                                    
                                                                                                    
                                                                                                    
                                                                                                    
                                                                                                    
                                                                                                    
                                                                                                    
                                                                                                    
                                                                                                    
                                                                                                    
                                                                                                    
                           
<?xpacket end="w"?></metadata>
<defs>
    <style>
      .cls-1 {
        fill: #6663e7;
        fill-rule: evenodd;
      }
    </style>
  </defs>
  <path id="Shape_33_copy" data-name="Shape 33 copy" class="cls-1" d="M1134.04,572A21,21,0,1,0,1155,593,20.984,20.984,0,0,0,1134.04,572Zm-5.39,28.239a16.445,16.445,0,0,1-3.91,4.567c-0.03.018-.05,0.036-0.07,0.05a0.517,0.517,0,0,1-.5.177c-0.21-.125-0.07-0.348-0.02-0.516a17.206,17.206,0,0,0,.73-3c0.03-.231.04-0.462,0.06-0.693a6.287,6.287,0,0,0-.73-2.758c-1.04-2.252-2.13-4.483-3.15-6.74a17.819,17.819,0,0,1-1.47-4.268,3.491,3.491,0,0,1,.38-2.313,11.3,11.3,0,0,1,3.31-3.645,0.355,0.355,0,0,1,.42-0.134,0.424,0.424,0,0,1,.05.45c-0.06.577-.14,1.153-0.2,1.731a8.757,8.757,0,0,0,.92,4.763c1.18,2.458,2.43,4.886,3.46,7.412a16.358,16.358,0,0,1,.97,2.974A2.674,2.674,0,0,1,1128.65,600.239Zm11.13,1.724a13.032,13.032,0,0,1-1.77,2.686,20.433,20.433,0,0,1-3.32,3.376,0.746,0.746,0,0,1-.75.317c-0.3-.182-0.06-0.533.01-0.8a32.771,32.771,0,0,0,.85-3.241,7.182,7.182,0,0,0-.44-3.968c-0.9-2.223-2.01-4.351-3.03-6.515a51.521,51.521,0,0,1-2.87-6.867,7.5,7.5,0,0,1-.43-2.694,5.411,5.411,0,0,1,1.06-2.634,15.642,15.642,0,0,1,3.48-3.639,2.857,2.857,0,0,1,.43-0.284c0.33-.174.45-0.088,0.45,0.129-0.12,1-.23,1.853-0.32,2.705a11.273,11.273,0,0,0,1.25,6.1c1.43,2.953,2.92,5.879,4.19,8.906a20.1,20.1,0,0,1,1.46,4.55A3.146,3.146,0,0,1,1139.78,601.963Zm8.43-1.679a16.315,16.315,0,0,1-3.9,4.53,1.1,1.1,0,0,1-.22.143,0.307,0.307,0,0,1-.35.076,0.318,0.318,0,0,1-.05-0.361c0.2-.818.49-1.61,0.68-2.435a6.141,6.141,0,0,0-.44-3.869c-1.02-2.357-2.24-4.623-3.27-6.979a20.057,20.057,0,0,1-1.47-4.27,3.346,3.346,0,0,1,.3-2.244,11.089,11.089,0,0,1,3.41-3.792,0.339,0.339,0,0,1,.38-0.122,0.246,0.246,0,0,1,.07.271c-0.07.788-.2,1.518-0.24,2.26a8.306,8.306,0,0,0,.8,4.1c1.24,2.658,2.61,5.253,3.71,7.975a15.437,15.437,0,0,1,.87,2.736A2.737,2.737,0,0,1,1148.21,600.284Z" transform="translate(-1113.09 -572)"/>
</svg>
