<svg xmlns="http://www.w3.org/2000/svg" width="16" height="16" viewBox="0 0 16 16">
  <metadata><?xpacket begin="﻿" id="W5M0MpCehiHzreSzNTczkc9d"?>
<x:xmpmeta xmlns:x="adobe:ns:meta/" x:xmptk="Adobe XMP Core 5.6-c138 79.159824, 2016/09/14-01:09:01        ">
   <rdf:RDF xmlns:rdf="http://www.w3.org/1999/02/22-rdf-syntax-ns#">
      <rdf:Description rdf:about=""/>
   </rdf:RDF>
</x:xmpmeta>
                                                                                                    
                                                                                                    
                                                                                                    
                                                                                                    
                                                                                                    
                                                                                                    
                                                                                                    
                                                                                                    
                                                                                                    
                                                                                                    
                                                                                                    
                                                                                                    
                                                                                                    
                                                                                                    
                                                                                                    
                                                                                                    
                                                                                                    
                                                                                                    
                                                                                                    
                                                                                                    
                           
<?xpacket end="w"?></metadata>
<defs>
    <style>
      .cls-1 {
        fill: #3c3c3c;
        fill-rule: evenodd;
      }
    </style>
  </defs>
  <path class="cls-1" d="M174.431,628.409q0-.12-0.006-0.24a3.613,3.613,0,0,0,.883-0.948,3.386,3.386,0,0,1-1.016.278,1.819,1.819,0,0,0,.778-1.015,3.4,3.4,0,0,1-1.122.432,1.759,1.759,0,0,0-1.291-.608,1.785,1.785,0,0,0-1.767,1.842,1.94,1.94,0,0,0,.046.427,4.982,4.982,0,0,1-3.644-2.013,1.983,1.983,0,0,0,.547,2.525,1.694,1.694,0,0,1-.8-0.245v0.024a1.877,1.877,0,0,0,1.419,1.86,1.675,1.675,0,0,1-.466.063,1.578,1.578,0,0,1-.332-0.036,1.8,1.8,0,0,0,1.651,1.316,3.4,3.4,0,0,1-2.617.772,4.767,4.767,0,0,0,2.71.849A5.133,5.133,0,0,0,174.431,628.409ZM179,630a8,8,0,1,0-8,8A8,8,0,0,0,179,630Zm-15.273,0A7.273,7.273,0,1,1,171,637.273,7.273,7.273,0,0,1,163.727,630Z" transform="translate(-163 -622)"/>
</svg>
