<svg xmlns="http://www.w3.org/2000/svg" width="20" height="17" viewBox="0 0 20 17">
  <metadata><?xpacket begin="﻿" id="W5M0MpCehiHzreSzNTczkc9d"?>
<x:xmpmeta xmlns:x="adobe:ns:meta/" x:xmptk="Adobe XMP Core 5.6-c138 79.159824, 2016/09/14-01:09:01        ">
   <rdf:RDF xmlns:rdf="http://www.w3.org/1999/02/22-rdf-syntax-ns#">
      <rdf:Description rdf:about=""/>
   </rdf:RDF>
</x:xmpmeta>
                                                                                                    
                                                                                                    
                                                                                                    
                                                                                                    
                                                                                                    
                                                                                                    
                                                                                                    
                                                                                                    
                                                                                                    
                                                                                                    
                                                                                                    
                                                                                                    
                                                                                                    
                                                                                                    
                                                                                                    
                                                                                                    
                                                                                                    
                                                                                                    
                                                                                                    
                                                                                                    
                           
<?xpacket end="w"?></metadata>
<defs>
    <style>
      .cls-1 {
        fill: #fff;
        fill-rule: evenodd;
      }
    </style>
  </defs>
  <path class="cls-1" d="M127,1033.01a8.159,8.159,0,0,1-2.356.68,4.294,4.294,0,0,0,1.8-2.38,8.021,8.021,0,0,1-2.606,1.05,4,4,0,0,0-2.995-1.36,4.2,4.2,0,0,0-4.1,4.29,4.46,4.46,0,0,0,.106.98,11.486,11.486,0,0,1-8.456-4.49,4.441,4.441,0,0,0-.555,2.16,4.361,4.361,0,0,0,1.825,3.58,4.062,4.062,0,0,1-1.858-.54v0.05a4.258,4.258,0,0,0,3.29,4.21,3.857,3.857,0,0,1-1.081.15,3.933,3.933,0,0,1-.772-0.08,4.122,4.122,0,0,0,3.832,2.98,8.013,8.013,0,0,1-5.095,1.84,7.906,7.906,0,0,1-.979-0.06,11.228,11.228,0,0,0,6.289,1.93c7.547,0,11.673-6.54,11.673-12.22l-0.014-.55A8.41,8.41,0,0,0,127,1033.01Z" transform="translate(-107 -1031)"/>
</svg>
